<svg xmlns="http://www.w3.org/2000/svg" viewBox="0 0 200 500" width="200" height="500">
  <defs>
    <style>
      .silhouette { fill: #E5E5E5; }
    </style>
  </defs>
  <!-- Base Silhouette -->
  <!-- Neck/Head area (head will be overlaid by photo) -->
  <circle cx="100" cy="40" r="20" class="silhouette" />
  
  <!-- Torso -->
  <path d="M 67.5 70 
           Q 100 60 132.5 70 
           C 135 150 125 200 137.5 250 
           L 62.5 250 
           C 75 200 65 150 67.5 70 Z" 
        class="silhouette" />
        
  <!-- Arms -->
  <path d="M 67.5 70 
           Q 47.5 150 57.5 250 
           L 77.5 250
           Q 67.5 150 77.5 70 Z" class="silhouette" />
  <path d="M 132.5 70 
           Q 152.5 150 142.5 250 
           L 122.5 250
           Q 132.5 150 122.5 70 Z" class="silhouette" />
           
  <!-- Legs -->
  <path d="M 62.5 250 
           L 95 480 L 115 480 L 90 250 Z" class="silhouette" />
  <path d="M 137.5 250 
           L 105 480 L 85 480 L 110 250 Z" class="silhouette" />
</svg>